<?xml version="1.0" encoding="UTF-8" standalone="no"?>
<!DOCTYPE svg PUBLIC "-//W3C//DTD SVG 1.1//EN" "http://www.w3.org/Graphics/SVG/1.1/DTD/svg11.dtd"
[
<!ATTLIST g
  xmlns:vectornator CDATA #FIXED "http://vectornator.io"
  vectornator:layerName CDATA #IMPLIED >
<!ATTLIST g
  xmlns:vectornator CDATA #FIXED "http://vectornator.io"
  vectornator:mask CDATA #IMPLIED >
<!ATTLIST text
  xmlns:vectornator CDATA #FIXED "http://vectornator.io"
  vectornator:width CDATA #IMPLIED >

<!ATTLIST path
  xmlns:vectornator CDATA #FIXED "http://vectornator.io"
  vectornator:blendMode CDATA #IMPLIED >
<!ATTLIST path
  xmlns:vectornator CDATA #FIXED "http://vectornator.io"
  vectornator:shadowColor CDATA #IMPLIED >
<!ATTLIST path
  xmlns:vectornator CDATA #FIXED "http://vectornator.io"
  vectornator:shadowOpacity CDATA #IMPLIED >
<!ATTLIST path
  xmlns:vectornator CDATA #FIXED "http://vectornator.io"
  vectornator:shadowRadius CDATA #IMPLIED >
<!ATTLIST path
  xmlns:vectornator CDATA #FIXED "http://vectornator.io"
  vectornator:shadowOffset CDATA #IMPLIED >
<!ATTLIST path
  xmlns:vectornator CDATA #FIXED "http://vectornator.io"
  vectornator:shadowAngle CDATA #IMPLIED >

<!ATTLIST image
  xmlns:vectornator CDATA #FIXED "http://vectornator.io"
  vectornator:blendMode CDATA #IMPLIED >
<!ATTLIST image
  xmlns:vectornator CDATA #FIXED "http://vectornator.io"
  vectornator:shadowColor CDATA #IMPLIED >
<!ATTLIST image
  xmlns:vectornator CDATA #FIXED "http://vectornator.io"
  vectornator:shadowOpacity CDATA #IMPLIED >
<!ATTLIST image
  xmlns:vectornator CDATA #FIXED "http://vectornator.io"
  vectornator:shadowRadius CDATA #IMPLIED >
<!ATTLIST image
  xmlns:vectornator CDATA #FIXED "http://vectornator.io"
  vectornator:shadowOffset CDATA #IMPLIED >
<!ATTLIST image
  xmlns:vectornator CDATA #FIXED "http://vectornator.io"
  vectornator:shadowAngle CDATA #IMPLIED >

<!ATTLIST g
  xmlns:vectornator CDATA #FIXED "http://vectornator.io"
  vectornator:blendMode CDATA #IMPLIED >
<!ATTLIST g
  xmlns:vectornator CDATA #FIXED "http://vectornator.io"
  vectornator:shadowColor CDATA #IMPLIED >
<!ATTLIST g
  xmlns:vectornator CDATA #FIXED "http://vectornator.io"
  vectornator:shadowOpacity CDATA #IMPLIED >
<!ATTLIST g
  xmlns:vectornator CDATA #FIXED "http://vectornator.io"
  vectornator:shadowRadius CDATA #IMPLIED >
<!ATTLIST g
  xmlns:vectornator CDATA #FIXED "http://vectornator.io"
  vectornator:shadowOffset CDATA #IMPLIED >
<!ATTLIST g
  xmlns:vectornator CDATA #FIXED "http://vectornator.io"
  vectornator:shadowAngle CDATA #IMPLIED >

<!ENTITY % SVG.filter.extra.content  "| feDropShadow" >
<!ELEMENT feDropShadow EMPTY>
<!ATTLIST feDropShadow
  xmlns:svg CDATA #FIXED "http://www.w3.org/Graphics/SVG/1.1/DTD/svg11.dtd"
  dx CDATA #IMPLIED>
<!ATTLIST feDropShadow
  xmlns:svg CDATA #FIXED "http://www.w3.org/Graphics/SVG/1.1/DTD/svg11.dtd"
  dy CDATA #IMPLIED>
<!ATTLIST feDropShadow
  xmlns:svg CDATA #FIXED "http://www.w3.org/Graphics/SVG/1.1/DTD/svg11.dtd"
  stdDeviation CDATA #IMPLIED>
<!ATTLIST feDropShadow
  xmlns:svg CDATA #FIXED "http://www.w3.org/Graphics/SVG/1.1/DTD/svg11.dtd"
  flood-opacity CDATA #IMPLIED>
<!ATTLIST feDropShadow
  xmlns:svg CDATA #FIXED "http://www.w3.org/Graphics/SVG/1.1/DTD/svg11.dtd"
  in CDATA #IMPLIED>
<!ATTLIST feDropShadow
  xmlns:svg CDATA #FIXED "http://www.w3.org/Graphics/SVG/1.1/DTD/svg11.dtd"
  result CDATA #IMPLIED>
<!ATTLIST feDropShadow
  xmlns:svg CDATA #FIXED "http://www.w3.org/Graphics/SVG/1.1/DTD/svg11.dtd"
  flood-color CDATA #IMPLIED>
]
>
<!-- Created with Vectornator (http://vectornator.io/) -->
<svg height="100%" stroke-miterlimit="10" style="fill-rule:nonzero;clip-rule:evenodd;stroke-linecap:round;stroke-linejoin:round;" version="1.1" viewBox="0 0 512 512" width="100%" xml:space="preserve" xmlns="http://www.w3.org/2000/svg" xmlns:vectornator="http://vectornator.io" xmlns:xlink="http://www.w3.org/1999/xlink">
<defs>
<clipPath id="TextBounds">
<rect height="2.36912" width="92.7904" x="-167.315" y="275.237"/>
</clipPath>
<linearGradient gradientTransform="matrix(1 0 0 1 0 0)" gradientUnits="userSpaceOnUse" id="LinearGradient" x1="159.38" x2="361.527" y1="312.066" y2="312.066">
<stop offset="0.421488" stop-color="#b0b4d2"/>
<stop offset="1" stop-color="#000000"/>
</linearGradient>
</defs>
<clipPath id="ArtboardFrame">
<rect height="512" width="512" x="0" y="0"/>
</clipPath>
<g clip-path="url(#ArtboardFrame)" id="Layer-5" vectornator:layerName="Layer 5">
<path d="M21.5851-8.95055L503.991-8.95055C526.422-8.95055 544.606 9.23369 544.606 31.6651L544.606 495.327C544.606 517.759 526.422 535.943 503.991 535.943L21.5851 535.943C-0.846329 535.943-19.0306 517.759-19.0306 495.327L-19.0306 31.6651C-19.0306 9.23369-0.846329-8.95055 21.5851-8.95055Z" fill="#6868b2" fill-rule="evenodd" opacity="1" stroke="none"/>
</g>
<g id="Layer-2" vectornator:layerName="Layer 2">
<path d="M132.911 204.739C127.064 206.688 126.601 190.921 126.158 186.935C125.552 181.477 127.788 173.32 130.456 168.518C131.748 166.192 134.061 163.855 135.06 161.458C137.515 155.566 140.016 150.797 144.882 146.417C146.489 144.972 148.674 144.301 150.408 143.041C158.551 137.119 167.977 134.589 177.42 131.683C180.566 130.715 183.996 131.07 187.242 131.07C188.508 131.07 190.926 131.99 190.926 131.99C190.926 131.99 189.385 130.606 188.47 130.149C186.704 129.266 183.682 128.311 183.252 126.158C182.987 124.836 183.9 123.441 184.48 122.475C185.4 120.94 185.18 119.086 186.321 117.564C187.522 115.963 188.978 114.363 190.005 112.652C190.425 111.952 190.474 110.875 190.926 110.197C192.64 107.624 194.902 104.805 197.372 102.83C199.164 101.396 201.595 100.448 203.204 98.8393C205.148 96.8949 207.423 94.5813 209.957 93.3141C212.145 92.2203 214.669 91.7754 216.71 90.2446C221.991 86.2834 227.064 82.5944 233.592 80.729C239.177 79.1334 245.65 77.684 251.396 77.0456C254.721 76.6761 258.215 77.5184 261.525 77.0456C263.977 76.6954 266.948 76.4189 269.506 76.7386C274.935 77.4172 280.303 79.3145 285.468 81.036C291.377 83.0058 295.859 83.21 300.815 87.1751C301.045 87.3589 302.845 87.7381 302.964 87.789C304.683 88.5258 306.018 90.4871 307.875 90.8585C311.878 91.6591 316.055 92.5652 318.619 95.7698C320.468 98.0808 321.291 101.619 322.916 104.058C324.378 106.25 327.151 108.517 328.134 110.811C328.744 112.233 328.861 114.068 329.669 115.415C330.696 117.127 332.573 118.377 333.353 120.326C335.668 126.114 337.278 132.046 340.719 137.209C341.689 138.664 340.709 141.557 340.412 143.041C339.333 148.44 337.156 153.303 335.808 158.695C335.456 160.104 334.231 164.485 335.501 165.755C337.155 167.41 339.499 166.369 341.333 166.369C342.42 166.369 342.111 167.998 343.175 168.211C346.777 168.931 350.437 168.619 353.918 170.36C356.169 171.485 353.612 170.36 355.453 171.894C358.472 174.41 361.885 176.178 364.662 178.954C365.57 179.862 366.868 180.111 367.424 181.41C368.934 184.932 368.94 189.966 370.494 193.074C372.034 196.155 373.485 199.118 373.871 202.59C374.237 205.89 373.266 209.143 373.564 212.412C373.658 213.453 373.696 215.44 374.177 216.403C375.441 218.929 378.234 220.367 377.554 223.77C376.872 227.182 371.896 227.279 369.88 229.295C368.868 230.307 368.085 231.703 367.118 232.671C366.008 233.781 364.112 234.266 362.82 235.127C361.846 235.777 360.598 237.352 359.444 237.583C356.639 238.144 353.675 238.033 350.849 238.504C339.26 240.435 327.79 243.108 315.856 243.108C308.935 243.108 301.856 243.648 294.983 244.336C291.469 244.687 287.445 243.401 283.933 243.108C279.553 242.743 275.117 243.138 270.734 242.801C266.613 242.484 262.724 240.646 258.763 239.731C254.401 238.725 248.477 238.713 244.029 239.118C238.591 239.612 233.437 241.42 228.067 242.187C221.062 243.188 213.355 243.108 206.273 243.108C202.141 243.108 197.802 243.482 193.688 243.108C191.191 242.881 189.157 242.007 186.935 241.266C185.89 240.918 184.333 241.421 183.252 241.266C181.554 241.024 179.791 240.541 178.034 240.345C175.368 240.049 170.605 241.953 168.211 240.038C166.985 239.058 169.146 237.597 168.211 236.662C164.416 232.866 158.427 234.667 154.398 231.444C151.14 228.837 149.894 225.405 147.031 222.542C144.652 220.163 140.262 221.282 138.743 218.245" fill="#edebfd" fill-rule="evenodd" opacity="1" stroke="none"/>
<path d="M336.115 139.664C336.115 137.336 338.019 139.065 338.571 140.278C340.066 143.568 340.886 147.442 341.333 151.022C341.92 155.715 341.127 160.212 341.64 164.835C341.832 166.56 342.3 168.595 341.947 170.36C341.562 172.286 341.619 175.007 340.719 176.806C340.569 177.107 339.361 179.177 339.492 179.568C340.017 181.145 346.279 178.447 346.859 178.034C350.455 175.465 354.996 168.367 360.365 173.736C361.504 174.876 352.697 177.622 351.463 178.034C349.558 178.669 348.061 179.989 346.245 180.796C343.511 182.011 340.336 183.098 337.65 184.173C333.473 185.843 328.621 181.013 324.144 183.252" fill="#edebfd" fill-rule="evenodd" opacity="1" stroke="none"/>
<path d="M340.106 177.113C338.146 173.193 347.403 168.335 350.849 167.904C355.482 167.325 359.012 171.218 362.82 173.122C366.543 174.983 369.742 174.519 372.95 177.727C377.98 182.757 378.59 190.309 379.396 196.758C379.656 198.839 380.701 200.832 380.93 202.897C381.196 205.284 380.93 207.857 380.93 210.264C380.93 213.262 381.782 217.735 380.01 220.393C378.14 223.198 374.135 225.082 372.643 228.067" fill="#edebfd" fill-rule="evenodd" opacity="1" stroke="none"/>
<path d="M200.441 122.782C200.237 122.679 200.049 122.417 199.827 122.475C194.876 123.762 190.008 125.35 185.094 126.772C182.231 127.601 179.27 128.134 176.499 129.228C171.338 131.265 162.34 139.508 163.914 145.803C164.413 147.802 166.248 147.719 167.597 148.259C168.653 148.681 167.262 152.556 169.439 152.556C171.877 152.556 174.026 151.425 176.499 152.249" fill="#edebfd" fill-rule="evenodd" opacity="1" stroke="none"/>
</g>
<g id="Layer-3" vectornator:layerName="Layer 3"/>
<g id="Layer-4" vectornator:layerName="Layer 4">
<path d="M113.908 372.297C113.908 369.695 116.368 370.15 118.339 369.712C120.55 369.221 122.716 368.488 124.985 368.235C127.343 367.973 129.638 368.974 132 368.974C150.025 368.974 169.974 367.338 187.382 370.82C193.218 371.987 200.003 370.451 205.843 370.451C212.942 370.451 220.564 371.236 227.627 370.451C229.916 370.196 232.332 369.712 234.642 369.712C238.023 369.712 241.625 370.451 244.98 370.451C251.615 370.451 258.767 369.733 265.287 370.82C271.515 371.858 277.967 371.272 284.117 372.297C286.444 372.685 291.003 372.371 292.609 374.512C294.743 377.358 292.726 381.26 291.871 384.112C291.263 386.137 291.501 388.306 291.501 390.389C291.501 393.883 292.278 394.895 293.717 397.773C294.299 398.936 293.838 400.593 294.086 401.834C294.465 403.728 296.246 405.785 297.04 407.372C298.224 409.74 296.779 412.977 297.409 415.495C298.034 417.994 301.404 417.969 302.578 419.926C303.409 421.31 302.437 423.107 303.686 424.356C304.19 424.861 305.901 425.706 305.901 426.572C305.901 428.304 301.653 427.679 300.732 427.679C296.794 427.679 292.855 427.679 288.917 427.679C275.897 427.679 262.839 428.049 249.78 428.049C244.176 428.049 238.3 428.466 232.796 427.679C224.965 426.561 216.569 427.271 208.797 428.049C201.823 428.746 194.37 428.049 187.382 428.049C181.524 428.049 175.219 428.7 169.66 427.31C166.291 426.468 162.363 427.992 158.953 427.31C156.76 426.872 155.252 425.463 153.045 425.095C150.457 424.664 147.439 425.105 144.922 425.464C140.981 426.027 136.434 425.281 132.738 424.356C128.376 423.266 123.616 420.844 121.292 416.972C119.836 414.544 119.774 411.146 118.708 408.48C117.633 405.792 115.389 404.614 114.277 401.834C113.038 398.736 114.167 395.743 113.539 392.604C113.361 391.716 112.8 391.361 112.8 390.389" fill="#f7f8fb" fill-rule="evenodd" opacity="1" stroke="none"/>
</g>
<g id="Layer-1" vectornator:layerName="Layer 1">
<path d="M107.898 276.422" fill="#000000" fill-rule="evenodd" opacity="0.625969" stroke="#120e0e" stroke-linecap="round" stroke-linejoin="round" stroke-opacity="0.683682" stroke-width="3.57759"/>
<g fill="#000000" opacity="0.625969" stroke="none">
<path clip-path="url(#TextBounds)" d="M-151.459 280.103L-151.459 282.153L-157.26 282.153L-157.26 297.317L-159.627 297.317L-159.627 282.153L-165.428 282.153L-165.428 280.103L-151.459 280.103Z" fill-rule="evenodd"/>
<path clip-path="url(#TextBounds)" d="M-147.041 284.485C-146.151 284.485-145.287 284.694-144.452 285.112C-143.616 285.53-142.979 286.071-142.541 286.735C-142.119 287.368-141.838 288.107-141.698 288.95C-141.573 289.528-141.51 290.45-141.51 291.716L-150.709 291.716C-150.67 292.989-150.369 294.011-149.807 294.78C-149.244 295.55-148.373 295.935-147.194 295.935C-146.092 295.935-145.213 295.571-144.557 294.845C-144.182 294.423-143.916 293.935-143.76 293.38L-141.686 293.38C-141.741 293.841-141.922 294.355-142.231 294.921C-142.539 295.487-142.885 295.95-143.268 296.31C-143.909 296.935-144.702 297.357-145.647 297.575C-146.155 297.7-146.729 297.763-147.369 297.763C-148.932 297.763-150.256 297.194-151.342 296.058C-152.428 294.921-152.971 293.329-152.971 291.282C-152.971 289.267-152.424 287.63-151.33 286.372C-150.237 285.114-148.807 284.485-147.041 284.485ZM-143.678 290.04C-143.764 289.126-143.963 288.396-144.276 287.849C-144.854 286.833-145.819 286.325-147.17 286.325C-148.139 286.325-148.952 286.675-149.608 287.374C-150.264 288.073-150.612 288.962-150.651 290.04L-143.678 290.04Z" fill-rule="evenodd"/>
<path clip-path="url(#TextBounds)" d="M-140.116 284.767L-137.385 284.767L-134.502 289.185L-131.584 284.767L-129.018 284.825L-133.248 290.884L-128.83 297.317L-131.526 297.317L-134.643 292.607L-137.666 297.317L-140.338 297.317L-135.92 290.884L-140.116 284.767Z" fill-rule="evenodd"/>
<path clip-path="url(#TextBounds)" d="M-126.498 281.263L-124.366 281.263L-124.366 284.767L-122.362 284.767L-122.362 286.489L-124.366 286.489L-124.366 294.681C-124.366 295.118-124.217 295.411-123.92 295.56C-123.756 295.646-123.483 295.689-123.1 295.689C-122.998 295.689-122.889 295.687-122.772 295.683C-122.655 295.679-122.518 295.669-122.362 295.653L-122.362 297.317C-122.604 297.388-122.856 297.439-123.118 297.47C-123.379 297.501-123.662 297.517-123.967 297.517C-124.952 297.517-125.619 297.265-125.971 296.761C-126.323 296.257-126.498 295.603-126.498 294.798L-126.498 286.489L-128.198 286.489L-128.198 284.767L-126.498 284.767L-126.498 281.263Z" fill-rule="evenodd"/>
</g>
<path d="M224.379 246.413" fill="#000000" fill-rule="evenodd" opacity="0.625969" stroke="none"/>
<path d="M256.406 73.2812C222.746 74.4348 192.889 92.4009 179.719 119.719C179.681 119.784 179.623 119.841 179.594 119.906C178.806 121.54 178.182 123.205 177.531 124.875C177.403 125.21 177.218 125.506 177.094 125.844C144.316 132.702 121.241 159.671 123.094 189.469C125.129 222.21 156.866 247.875 195.344 247.875L337.125 247.875C364.352 247.875 387.311 229.009 388.281 205.844C389.081 186.899 375.658 170.172 356.469 163.594C356.261 163.488 356.107 163.358 355.875 163.281C353.052 162.361 350.125 161.732 347.156 161.281C346.733 161.216 346.302 161.117 345.875 161.062C347.11 153.873 347.178 146.548 346.062 139.188C340.972 105.555 309.41 78.0678 271.031 73.8438C266.105 73.3012 261.215 73.1165 256.406 73.2812ZM259.906 80.5C263.243 80.5 266.605 80.6914 270 81.0625C304.701 84.8827 333.242 109.744 337.844 140.156C338.888 147.051 338.719 153.885 337.5 160.594C334.963 160.637 332.437 160.805 329.938 161.188C327.682 161.537 326.169 163.427 326.562 165.406C326.96 167.382 329.078 168.71 331.375 168.375C334.538 167.887 337.756 167.774 340.969 167.938C342.105 167.996 343.232 168.112 344.344 168.25C344.754 168.301 345.152 168.348 345.562 168.406C365.664 171.441 380.767 187.276 380 205.562C379.606 214.891 374.871 223.345 367.562 229.625L367.562 229.406C365.152 232.047 362.193 234.231 359.094 235.188C352.616 238.544 345.139 240.594 337.125 240.594L195.344 240.594C182.19 240.594 169.952 237.178 159.75 231.375C159.839 231.232 159.85 231.062 159.906 230.906C157.223 229.773 154.418 228.206 152 226.219C140.078 216.912 132.295 203.84 131.375 189.094C129.829 164.168 148.04 141.514 174.562 134.062C173.364 139.149 172.75 144.339 172.75 149.625C172.75 151.637 174.583 153.281 176.875 153.281C179.167 153.281 181.031 151.637 181.031 149.625C181.031 142.916 182.151 136.358 184.281 130.031C184.29 130.013 184.304 130.022 184.312 130C184.777 128.617 185.324 127.276 185.875 125.938C186.136 125.312 186.374 124.685 186.656 124.062C198.583 97.6593 227.58 80.5 259.906 80.5Z" fill="#000000" fill-rule="evenodd" opacity="1" stroke="none"/>
<path d="M302.1 109.478C303.542 107.914 303.265 105.621 301.491 104.359C298.22 102.034 294.688 99.9821 290.99 98.2466C288.959 97.3079 286.459 97.9774 285.377 99.7456C284.299 101.517 285.066 103.726 287.085 104.672C290.319 106.182 293.407 107.979 296.267 110.017C297.038 110.559 297.959 110.828 298.875 110.828C300.085 110.824 301.279 110.362 302.1 109.478ZM273.795 92.72C258.544 89.8348 241.946 91.8832 228.179 98.4467C226.168 99.4072 225.422 101.616 226.516 103.38C227.271 104.592 228.693 105.279 230.164 105.279C230.832 105.279 231.512 105.138 232.142 104.839C244.188 99.098 258.743 97.3225 272.05 99.8293C274.317 100.259 276.494 98.9997 276.974 97.0387C277.455 95.0813 276.029 93.1457 273.795 92.72Z" fill="#000000" fill-rule="evenodd" opacity="1" stroke="none"/>
<path d="M161.367 202.045C162.802 199.176 174.302 197.574 177.015 197.574C187.613 197.574 198.46 198.071 209.306 198.071C211.146 198.071 213.198 197.811 215.019 198.071C217.85 198.476 221.483 199.56 224.458 198.816C230.058 197.416 236.351 198.071 242.094 198.071C252.345 198.071 262.423 198.137 272.397 199.562C277.964 200.357 284.692 199.458 290.033 198.568C294.196 197.874 299.41 198.64 303.446 199.313C309.237 200.278 315.109 198.32 320.833 198.32C325.772 198.32 331.456 197.85 336.482 198.568C338.395 198.841 340.977 199.209 342.94 198.816C348.249 197.755 355.785 198.945 358.837 204.033C360.166 206.246 359.209 212.35 359.582 214.962C359.945 217.499 360.579 219.944 361.073 222.414C361.662 225.358 360.195 228.308 360.576 231.356C360.893 233.89 361.973 237.192 361.321 239.801C361.068 240.812 360.532 241.76 360.328 242.782C359.961 244.613 360.694 246.663 360.328 248.495C359.951 250.378 359.29 252.163 359.582 254.208C359.915 256.539 361.073 259.113 361.073 261.411C361.073 264.28 359.98 267.372 360.576 270.353C360.855 271.749 361.366 273.608 361.073 275.072C360.885 276.011 360.265 276.876 360.079 277.805C359.458 280.909 360.7 284.387 360.079 287.492C359.707 289.354 358.867 291.49 359.086 293.453C359.859 300.414 360.824 307.263 360.824 314.318C360.824 317.487 359.467 320.483 359.831 323.757C360.664 331.259 361.397 336.885 360.328 344.373C359.704 348.741 361.668 353.667 360.576 358.035C360.092 359.972 359.478 362.036 359.086 363.996C358.511 366.871 359.114 370.624 359.582 373.435C360.202 377.151 359.299 381.809 358.589 385.358C357.92 388.701 359.072 392.41 358.589 395.79C357.766 401.548 354.487 405.865 353.373 411.439C353.06 413.002 349.335 417.96 348.156 419.139C347.426 419.869 347.401 421.568 346.666 422.12C345.317 423.131 342.537 422.3 340.953 422.616C339.902 422.827 340.118 423.67 339.463 424.107C338.6 424.682 336.953 423.629 335.985 424.355C335.483 424.732 335.213 425.702 334.495 425.845C329.673 426.81 323.507 426.778 318.846 425.845C317.865 425.649 316.904 426.267 315.866 426.094C313.879 425.763 313.218 423.229 311.395 422.865C310.869 422.76 306.189 421.631 306.178 421.623C302.704 419.017 302.848 414.07 299.969 411.19C298.41 409.632 296.396 409.324 295.001 407.465C293.9 405.997 295.351 403.006 295.001 401.255C294.688 399.691 292.287 394.769 293.262 393.306C294.104 392.043 294.891 391.764 294.504 389.829C294.312 388.867 293.014 387.817 293.014 386.848C293.014 385.646 294.528 384.218 294.752 382.874C295.026 381.232 295.04 377.945 293.759 376.664C293.426 376.331 292.527 376.306 292.269 375.919C291.741 375.127 292.171 373.586 291.275 372.69C290.601 372.016 289.37 371.862 288.543 371.696C287.317 371.451 286.291 370.203 285.065 369.958C283.291 369.603 281.158 370.454 279.352 370.454C276.898 370.454 274.085 368.705 271.652 368.219C270.154 367.919 267.406 367.926 265.939 368.219C264.591 368.488 263.736 369.517 262.213 369.212C259.786 368.727 257.681 366.716 255.258 366.232C253.194 365.819 251.25 366.651 249.297 366.977C247.292 367.311 244.54 367.118 242.59 366.728C239.681 366.147 236.542 366.562 233.648 365.983C232.044 365.662 230.906 364.494 229.177 364.741C226.632 365.105 224.161 365.993 221.726 366.48C219.753 366.875 217.599 366.35 215.764 365.983C213.286 365.488 210.553 366.233 208.064 365.735C206.223 365.367 204.251 364.516 202.351 364.245C199.75 363.873 199.466 370.523 196.638 369.958C192.043 369.038 183.448 370.35 179.002 369.461C173.08 368.276 164.541 366.632 159.38 369.212" fill="url(#LinearGradient)" fill-rule="evenodd" opacity="1" stroke="none"/>
<path d="M169.344 192.969C162.496 192.969 156.937 198.73 156.938 205.812L156.938 225.531C156.996 226.077 157.103 226.777 157.156 227.312C157.167 227.42 157.073 227.491 157.062 227.594C157.094 227.906 157.147 228.428 157.156 228.5C157.193 228.795 157.052 229.031 156.938 229.281L156.938 364.25L119.688 364.25C112.84 364.25 107.25 370.011 107.25 377.094L107.25 394.219C107.25 415.467 123.958 432.781 144.5 432.781L326.656 432.781C347.198 432.781 363.937 415.467 363.938 394.219L363.938 205.812C363.938 198.73 358.347 192.969 351.5 192.969L169.344 192.969ZM169.344 201.531L351.5 201.531C353.781 201.531 355.656 203.453 355.656 205.812L355.656 394.219C355.656 410.748 342.636 424.219 326.656 424.219C310.676 424.219 297.687 410.748 297.688 394.219L297.688 377.094C297.688 370.011 292.129 364.25 285.281 364.25L165.219 364.25L165.219 205.812C165.219 203.453 167.063 201.531 169.344 201.531ZM119.688 372.812L285.281 372.812C287.562 372.812 289.406 374.734 289.406 377.094L289.406 394.219C289.406 406.32 294.851 417.149 303.312 424.219L144.5 424.219C128.52 424.219 115.531 410.748 115.531 394.219L115.531 389.938L243.875 389.938C246.16 389.938 248 388.02 248 385.656C248 383.292 246.16 381.375 243.875 381.375L115.531 381.375L115.531 377.094C115.531 374.734 117.406 372.813 119.688 372.812Z" fill="#000000" fill-rule="evenodd" opacity="1" stroke="none"/>
<path d="M177.632 218.662C175.347 218.662 173.492 220.58 173.492 222.944L173.492 231.508C173.492 233.872 175.347 235.79 177.632 235.79C179.917 235.79 181.772 233.872 181.772 231.508L181.772 222.944C181.772 220.58 179.917 218.662 177.632 218.662ZM198.331 218.662C196.046 218.662 194.191 220.58 194.191 222.944L194.191 231.508C194.191 233.872 196.046 235.79 198.331 235.79C200.616 235.79 202.471 233.872 202.471 231.508L202.471 222.944C202.471 220.58 200.616 218.662 198.331 218.662ZM219.03 218.662C216.745 218.662 214.89 220.58 214.89 222.944L214.89 231.508C214.89 233.872 216.745 235.79 219.03 235.79C221.315 235.79 223.17 233.872 223.17 231.508L223.17 222.944C223.17 220.58 221.315 218.662 219.03 218.662ZM239.73 218.662C237.444 218.662 235.59 220.58 235.59 222.944L235.59 231.508C235.59 233.872 237.444 235.79 239.73 235.79C242.015 235.79 243.869 233.872 243.869 231.508L243.869 222.944C243.869 220.58 242.015 218.662 239.73 218.662ZM260.429 218.662C258.144 218.662 256.289 220.58 256.289 222.944L256.289 231.508C256.289 233.872 258.144 235.79 260.429 235.79C262.714 235.79 264.569 233.872 264.569 231.508L264.569 222.944C264.569 220.58 262.714 218.662 260.429 218.662ZM281.128 218.662C278.843 218.662 276.988 220.58 276.988 222.944L276.988 231.508C276.988 233.872 278.843 235.79 281.128 235.79C283.413 235.79 285.268 233.872 285.268 231.508L285.268 222.944C285.268 220.58 283.413 218.662 281.128 218.662ZM301.827 218.662C299.542 218.662 297.687 220.58 297.687 222.944L297.687 231.508C297.687 233.872 299.542 235.79 301.827 235.79C304.112 235.79 305.967 233.872 305.967 231.508L305.967 222.944C305.967 220.58 304.112 218.662 301.827 218.662ZM322.526 218.662C320.241 218.662 318.387 220.58 318.387 222.944L318.387 231.508C318.387 233.872 320.241 235.79 322.526 235.79C324.812 235.79 326.666 233.872 326.666 231.508L326.666 222.944C326.666 220.58 324.812 218.662 322.526 218.662ZM343.226 218.662C340.941 218.662 339.086 220.58 339.086 222.944L339.086 231.508C339.086 233.872 340.941 235.79 343.226 235.79C345.511 235.79 347.366 233.872 347.366 231.508L347.366 222.944C347.366 220.58 345.511 218.662 343.226 218.662ZM276.988 381.384L260.429 381.384C258.144 381.384 256.289 383.302 256.289 385.666C256.289 388.03 258.144 389.948 260.429 389.948L276.988 389.948C279.273 389.948 281.128 388.03 281.128 385.666C281.128 383.302 279.273 381.384 276.988 381.384Z" fill="#000000" fill-rule="evenodd" opacity="1" stroke="none"/>
</g>
</svg>
